<?xml version="1.0" encoding="UTF-8"?>
<svg id="svg56" width="256" height="512" enable-background="new 0 0 86 86" version="1.1" viewBox="0 0 256 512" xml:space="preserve" xmlns="http://www.w3.org/2000/svg" xmlns:cc="http://creativecommons.org/ns#" xmlns:dc="http://purl.org/dc/elements/1.1/" xmlns:rdf="http://www.w3.org/1999/02/22-rdf-syntax-ns#"><metadata id="metadata62"><rdf:RDF><cc:Work rdf:about=""><dc:format>image/svg+xml</dc:format><dc:type rdf:resource="http://purl.org/dc/dcmitype/StillImage"/></cc:Work></rdf:RDF></metadata>


<g id="g847" transform="translate(0 80)"><path id="path2143" d="m19.693-80c-10.909 0-19.693 7.8022-19.693 17.5v212.54c0 9.6974 8.7834 17.502 19.693 17.502h69.641c-11.134-4.2932-19.742-10.644-25.758-19.107-6.4726-9.2153-9.709-20.46-9.709-33.734 0-20.405 6.6358-36.531 19.91-48.379s31.322-17.773 54.141-17.773c22.928 0 41.03 5.9253 54.305 17.773 13.274 11.848 19.91 27.974 19.91 48.379 0 13.165-3.18 24.355-9.543 33.57-5.9242 8.4777-14.403 14.883-25.367 19.271h69.084c10.909 0 19.693-7.8041 19.693-17.502v-212.54c0-9.6974-8.7834-17.5-19.693-17.5h-216.61zm108.22 167.72c-9.4347 0-16.95 2.7976-22.545 8.3926s-8.3926 13.11-8.3926 22.545c0 9.6541 2.7432 17.332 8.2285 23.037 5.595 5.595 13.165 8.3926 22.709 8.3926 9.6541 0 17.224-2.7976 22.709-8.3926 5.595-5.7047 8.3926-13.383 8.3926-23.037 0-9.5444-2.7976-17.06-8.3926-22.545-5.4853-5.595-13.055-8.3926-22.709-8.3926zm-108.22 50.289c5.4379 0 9.8457 4.4076 9.8457 9.8457 0 5.4379-4.4078 9.8477-9.8457 9.8477-5.438 0-9.8477-4.4098-9.8477-9.8477 0-5.438 4.4096-9.8457 9.8477-9.8457zm216.61 0c5.4379 0 9.8477 4.4076 9.8477 9.8457 0 5.4379-4.4096 9.8477-9.8477 9.8477-5.438 0-9.8457-4.4098-9.8457-9.8477 0-5.438 4.4077-9.8457 9.8457-9.8457zm-216.61 46.453c-10.91 0-19.693 7.8045-19.693 17.502v212.54c0 9.6978 8.784 17.5 19.693 17.5h216.61c10.91 0 19.693-7.8026 19.693-17.5v-212.54c0-9.6978-8.784-17.502-19.693-17.502h-44.984c1.9206 2.0039 3.733 4.1286 5.3808 6.4356 7.6794 10.751 11.52 23.642 11.52 38.672 0 23.587-6.9678 41.797-20.9 54.633-13.933 12.836-33.733 19.254-59.404 19.254-25.561 0-45.308-6.4184-59.24-19.254-13.933-12.836-20.9-31.046-20.9-54.633 0-15.139 3.8945-28.085 11.684-38.836 1.6285-2.2478 3.4202-4.3162 5.3125-6.2715h-45.08zm108.22 4.625c-10.861 0-19.638 3.4558-26.33 10.367-6.692 6.8017-10.037 15.853-10.037 27.152s3.3451 20.405 10.037 27.316c6.692 6.9114 15.469 10.367 26.33 10.367s19.636-3.5101 26.328-10.531c6.8017-7.0212 10.203-16.072 10.203-27.152 0-11.3-3.3451-20.351-10.037-27.152-6.692-6.9114-15.524-10.367-26.494-10.367zm-108.22 5.2207c5.4379 0 9.8457 4.4098 9.8457 9.8477 1e-6 5.438-4.4078 9.8457-9.8457 9.8457-5.438 0-9.8477-4.4077-9.8477-9.8457 0-5.4379 4.4097-9.8477 9.8477-9.8477zm216.61 0c5.438 0 9.8477 4.4098 9.8477 9.8477 0 5.438-4.4098 9.8457-9.8477 9.8457-5.438 0-9.8457-4.4077-9.8457-9.8457 0-5.4379 4.4077-9.8477 9.8457-9.8477z" fill="#fff" fill-opacity=".5"/><path id="path2764" d="m20 204v-56" fill="#fff" stroke="#fff" stroke-linecap="round" stroke-width="8"/><path id="path2801" d="m236 204v-56" fill="none" stroke="#fff" stroke-linecap="round" stroke-width="8"/></g></svg>
